<svg xmlns="http://www.w3.org/2000/svg" xmlns:xlink="http://www.w3.org/1999/xlink" viewBox="0 0 240.34 87.69"><defs><style>.cls-1{fill:url(#linear-gradient);}.cls-2{fill:#ecc92d;}.cls-3{fill:#00285f;}</style><linearGradient id="linear-gradient" x1="75.23" y1="-5.77" x2="68.73" y2="170.8" gradientUnits="userSpaceOnUse"><stop offset="0" stop-color="#ce3627"/><stop offset="0.76" stop-color="#e77429"/></linearGradient></defs><g id="Layer_2" data-name="Layer 2"><g id="Layer_1-2" data-name="Layer 1"><path d="M6.38,16.39a92.79,92.79,0,0,1,16.27-1.32c8.18,0,13.3,1.06,17.46,3.88A13,13,0,0,1,46.4,30.42c0,5.61-3.5,10.72-10.15,13.15v.24c6.44,1.63,12.34,6.7,12.34,15.11a16,16,0,0,1-5.84,12.59c-4.34,3.75-11.49,5.63-22.66,5.63a106.59,106.59,0,0,1-13.71-.8ZM17.44,40.48h5.71c7.73,0,12-3.65,12-8.8,0-5.73-4.34-8.36-11.35-8.36a29.88,29.88,0,0,0-6.38.49Zm0,28a34.75,34.75,0,0,0,5.9.32c7.12,0,13.54-2.68,13.54-10.21,0-7.09-6.24-10-13.89-10H17.44Z" transform="translate(-6.38 -12.29)"/><path d="M70,20.16c0,3.32-2.4,6-6.35,6a5.85,5.85,0,0,1-6.1-6,5.9,5.9,0,0,1,6.24-6A5.87,5.87,0,0,1,70,20.16ZM58.22,76.55V32.49H69.37V76.55Z" transform="translate(-6.38 -12.29)"/><path d="M71.56,86.74c3.62-.28,6.58-1.19,8.37-3.13,2.08-2.24,2.89-5.74,2.89-15.32V32.49H94v39c0,9.14-1.77,14.85-5.78,18.77-3.82,3.64-10,5.18-15.52,5.2Zm23-66.58c0,3.3-2.37,6-6.34,6a5.85,5.85,0,0,1-6.11-6,6.23,6.23,0,0,1,12.45,0Z" transform="translate(-6.38 -12.29)"/><path d="M105.82,12.29H117V76.55H105.82Z" transform="translate(-6.38 -12.29)"/><path d="M140.88,20.16c0,3.32-2.41,6-6.35,6a5.86,5.86,0,0,1-6.11-6,6.23,6.23,0,0,1,12.46,0Zm-11.8,56.39V32.49h11.14V76.55Z" transform="translate(-6.38 -12.29)"/><path class="cls-1" d="M6.38,16.39a92.79,92.79,0,0,1,16.27-1.32c8.18,0,13.3,1.06,17.46,3.88A13,13,0,0,1,46.4,30.42c0,5.61-3.5,10.72-10.15,13.15v.24c6.44,1.63,12.34,6.7,12.34,15.11a16,16,0,0,1-5.84,12.59c-4.34,3.75-11.49,5.63-22.66,5.63a106.59,106.59,0,0,1-13.71-.8ZM17.44,40.48h5.71c7.73,0,12-3.65,12-8.8,0-5.73-4.34-8.36-11.35-8.36a29.88,29.88,0,0,0-6.38.49Zm0,28a34.75,34.75,0,0,0,5.9.32c7.12,0,13.54-2.68,13.54-10.21,0-7.09-6.24-10-13.89-10H17.44Z" transform="translate(-6.38 -12.29)"/><path class="cls-1" d="M70,20.16c0,3.32-2.4,6-6.35,6a5.85,5.85,0,0,1-6.1-6,5.9,5.9,0,0,1,6.24-6A5.87,5.87,0,0,1,70,20.16ZM58.22,76.55V32.49H69.37V76.55Z" transform="translate(-6.38 -12.29)"/><path class="cls-1" d="M71.56,86.74c3.62-.28,6.58-1.19,8.37-3.13,2.08-2.24,2.89-5.74,2.89-15.32V32.49H94v39c0,9.14-1.77,14.85-5.78,18.77-3.82,3.64-10,5.18-15.52,5.2Zm23-66.58c0,3.3-2.37,6-6.34,6a5.85,5.85,0,0,1-6.11-6,6.23,6.23,0,0,1,12.45,0Z" transform="translate(-6.38 -12.29)"/><path class="cls-1" d="M105.82,12.29H117V76.55H105.82Z" transform="translate(-6.38 -12.29)"/><path class="cls-1" d="M140.88,20.16c0,3.32-2.41,6-6.35,6a5.86,5.86,0,0,1-6.11-6,6.23,6.23,0,0,1,12.46,0Zm-11.8,56.39V32.49h11.14V76.55Z" transform="translate(-6.38 -12.29)"/><path class="cls-2" d="M171.93,75.74V60.79H145.3V53.54l24-36.62h13.14V52.35H190v8.44h-7.58V75.74Zm0-23.39v-16c0-3.32.15-6.71.36-10.18l-.32,0c-1.87,3.69-3.38,6.7-5.21,10L156,52.17l0,.18Z" transform="translate(-6.38 -12.29)"/><path class="cls-2" d="M209.5,14.75V50.31c0,11.92,4.95,17.47,12.5,17.47,8,0,12.85-5.5,12.85-17.47V14.75H246V49.59c0,18.79-9.67,27.15-24.4,27.15-14.07,0-23.24-7.9-23.24-27.09V14.75Z" transform="translate(-6.38 -12.29)"/><path class="cls-3" d="M107.82,99.72,104,83.54h3.92l1.23,6.66c.34,1.93.68,4,.94,5.66h0c.26-1.75.65-3.69,1.05-5.7l1.39-6.62h3.89l1.29,6.83c.34,1.89.62,3.62.85,5.41h.05c.26-1.81.6-3.68.95-5.62l1.31-6.62h3.72l-4.17,16.18h-3.95l-1.38-7c-.32-1.61-.58-3.14-.78-5h0c-.27,1.82-.53,3.35-.92,5l-1.55,7Z" transform="translate(-6.38 -12.29)"/><path class="cls-3" d="M136.14,92.88h-5.95v3.84h6.66v3H126.53V83.54h10v3h-6.31v3.37h5.95Z" transform="translate(-6.38 -12.29)"/><path class="cls-3" d="M156.07,99.27a10.47,10.47,0,0,1-4.14.7c-5.6,0-8.49-3.5-8.49-8.11,0-5.52,3.95-8.57,8.84-8.57a9.25,9.25,0,0,1,4,.72l-.75,2.89a7.58,7.58,0,0,0-3.07-.61c-2.89,0-5.15,1.76-5.15,5.36,0,3.24,1.91,5.28,5.17,5.28a8.9,8.9,0,0,0,3.06-.52Z" transform="translate(-6.38 -12.29)"/><path class="cls-3" d="M172.55,91.47c0,5.31-3.2,8.51-7.93,8.51S157,96.35,157,91.74c0-4.83,3.11-8.46,7.87-8.46C169.84,83.28,172.55,87,172.55,91.47Zm-11.68.2c0,3.17,1.49,5.41,3.93,5.41s3.89-2.34,3.89-5.49c0-2.91-1.38-5.4-3.9-5.4S160.87,88.53,160.87,91.67Z" transform="translate(-6.38 -12.29)"/><path class="cls-3" d="M175,99.72V83.54h4.26l3.36,5.94A47.06,47.06,0,0,1,185.23,95h.06a65.57,65.57,0,0,1-.29-6.76V83.54h3.35V99.72h-3.83l-3.47-6.23a61.93,61.93,0,0,1-2.81-5.72h-.08c.12,2.15.16,4.44.16,7.08v4.86Z" transform="translate(-6.38 -12.29)"/><path class="cls-3" d="M191.53,99.72V83.54h4.26l3.36,5.94A47.06,47.06,0,0,1,201.79,95h.06a65.57,65.57,0,0,1-.29-6.76V83.54h3.35V99.72h-3.83l-3.47-6.23a61.93,61.93,0,0,1-2.81-5.72h-.08c.12,2.15.16,4.44.16,7.08v4.86Z" transform="translate(-6.38 -12.29)"/><path class="cls-3" d="M217.7,92.88h-6v3.84h6.66v3H208.08V83.54h10v3h-6.31v3.37h6Z" transform="translate(-6.38 -12.29)"/><path class="cls-3" d="M232.77,99.27a10.47,10.47,0,0,1-4.14.7c-5.6,0-8.49-3.5-8.49-8.11,0-5.52,4-8.57,8.84-8.57a9.21,9.21,0,0,1,4,.72l-.74,2.89a7.67,7.67,0,0,0-3.08-.61c-2.88,0-5.14,1.76-5.14,5.36,0,3.24,1.91,5.28,5.17,5.28a8.8,8.8,0,0,0,3.05-.52Z" transform="translate(-6.38 -12.29)"/><path class="cls-3" d="M238.64,86.61h-4.37V83.54h12.45v3.07H242.3V99.72h-3.66Z" transform="translate(-6.38 -12.29)"/></g></g></svg>